<?xml version="1.0" encoding="UTF-8"?>
<svg id="Ebene_1" xmlns="http://www.w3.org/2000/svg" version="1.1" viewBox="0 0 412.5 369">
  <!-- Generator: Adobe Illustrator 29.7.1, SVG Export Plug-In . SVG Version: 2.1.1 Build 8)  -->
  <defs>
    <style>
      .st0 {
        fill: #fff;
      }
    </style>
  </defs>
  <circle class="st0" cx="206.3" cy="184.5" r="184.2"/>
  <path id="logo" d="M302.5,225.9c11.3-14.2,24.4-35.4,28.7-62,6.2-37.4-7.8-77.3-37.3-106.8-24.8-24.8-57.8-39.1-90.4-39.1s-10.4.4-15.8,1.1c-37.4,5.6-63.7,28.2-80.2,44.7l-38.4,38.4,40.9,40.9c-11.3,14.2-24.4,35.4-28.7,62-6.2,37.4,7.8,77.3,37.3,106.8,24.8,24.8,57.8,39,90.4,39.1,5.2,0,10.4-.4,15.8-1.1,37.4-5.6,63.7-28.2,80.2-44.7l38.4-38.4-40.9-40.9ZM293.4,157.6c-4.5,28.2-24.3,49.1-33.6,58.5l-10.6,10.6,40,40.1-11.3,11.3c-12.4,12.4-32.2,29.9-58.8,33.9-26.3,3.7-53.7-7.4-73.5-27.1-20.1-20.1-30.8-47.8-26.5-73.5,4.5-28.2,24.3-49.1,33.6-58.5l10.6-10.6-40-40.1,11.3-11.3c12.4-12.4,32.2-29.9,58.8-33.9,26.3-3.7,53.7,7.4,73.5,27.1,20.1,20.1,30.8,47.8,26.5,73.5Z"/>
</svg>