<?xml version="1.0" encoding="UTF-8"?>
<svg id="Ebene_1" xmlns="http://www.w3.org/2000/svg" version="1.1" viewBox="0 0 412.5 369">
  <!-- Generator: Adobe Illustrator 29.7.1, SVG Export Plug-In . SVG Version: 2.1.1 Build 8)  -->
  <path id="logo" d="M312.9,230.4c12.5-15.7,27-39.2,31.8-68.7,6.9-41.4-8.6-85.7-41.3-118.3C275.9,15.8,239.3,0,203.2,0s-11.5.4-17.5,1.2c-41.4,6.2-70.6,31.2-88.9,49.5l-42.6,42.6,45.3,45.3c-12.5,15.7-27,39.2-31.8,68.7-6.9,41.4,8.6,85.7,41.3,118.3,27.5,27.5,64,43.2,100.2,43.3,5.8,0,11.5-.4,17.5-1.2,41.4-6.2,70.6-31.2,88.9-49.5l42.6-42.6-45.3-45.3h0ZM302.8,154.7c-5,31.2-26.9,54.4-37.2,64.8l-11.7,11.7,44.3,44.4-12.5,12.5c-13.7,13.7-35.7,33.1-65.2,37.6-29.1,4.1-59.5-8.2-81.4-30-22.3-22.3-34.1-53-29.4-81.4,5-31.2,26.9-54.4,37.2-64.8l11.7-11.7-44.3-44.4,12.5-12.5c13.7-13.7,35.7-33.1,65.2-37.6,29.1-4.1,59.5,8.2,81.4,30,22.3,22.3,34.1,53,29.4,81.4h0Z"/>
</svg>