<?xml version="1.0" encoding="UTF-8"?>
<svg id="Layer_1" xmlns="http://www.w3.org/2000/svg" version="1.1" viewBox="0 0 1474.5 222">
  <!-- Generator: Adobe Illustrator 29.7.1, SVG Export Plug-In . SVG Version: 2.1.1 Build 8)  -->
  <path fill="#fff" id="logo" d="M295.2,37c20.6,0,38.6,2.2,55,14.4,18,13.5,28.4,35.1,28.4,59.7s-10.2,45.9-29.7,59.7c-17.3,12.2-33.5,14.2-54.2,14.2h-38.2V37h38.6ZM285.5,160.2h8.9c7.3,0,23.3-.4,36.2-9.8,11.8-8.4,18.4-23.5,18.4-39.3s-6.4-30.6-18.2-39.5c-12-8.9-26.6-9.8-36.4-9.8h-8.9v98.3ZM488.3,153.9h-59.7l-13.1,31.1h-31.3l63.7-148h22.6l61.9,148h-31.1l-13.1-31.1ZM479.9,130.4l-21.1-53.3-21.1,53.3h42.2ZM537.8,37l39.5,99.4,39.5-99.4h31.5l-62.6,148h-17.3l-62.1-148h31.5ZM699,37v148h-28.9V37h28.9ZM771.3,37c20.6,0,38.6,2.2,55,14.4,18,13.5,28.4,35.1,28.4,59.7s-10.2,45.9-29.7,59.7c-17.3,12.2-33.5,14.2-54.2,14.2h-38.2V37h38.6ZM761.5,160.2h8.9c7.3,0,23.3-.4,36.2-9.8,11.8-8.4,18.4-23.5,18.4-39.3s-6.4-30.6-18.2-39.5c-12-8.9-26.6-9.8-36.4-9.8h-8.9v98.3ZM970.4,37c20.4,0,30.9,5.3,37.7,11.1,11.3,9.5,14.6,22.2,14.6,33.3s-5.8,27.1-17.3,34.8c-3.8,2.7-9.1,5.1-16.2,6.4l46.2,62.4h-36l-39.5-59.5h-3.6v59.5h-28.9V37h42.8ZM956.4,105.1h8.2c5.5,0,28.4-.7,28.4-22.4s-22.6-22.2-28-22.2h-8.7v44.6ZM1088.3,37v148h-28.9V37h28.9ZM1197,105.8h67.9v1.8c0,10-1.3,41.1-21.8,61.3-15.3,15.3-34.2,19.5-52.6,19.5s-37.5-3.8-53.7-20c-5.1-5.1-22-23.7-22-57s12.9-46.2,21.8-55c11.1-11.3,29.7-22.6,58.4-22.6s22.9,1.8,34.2,7.8c9.5,4.9,20,13.8,27.7,27.1l-25.1,13.5c-5.1-10-12.7-15.1-17.3-17.5-6.2-3.1-14-4.7-20.9-4.7-11.8,0-25.1,4.2-34.2,13.1-8.4,8.2-14.9,22.4-14.9,39.1s8.4,31.5,14.6,37.5c6.7,6.4,17.1,12.7,32.8,12.7s20.9-2.7,29.1-8.9c5.8-4.4,11.5-12,14-22.6h-38.2v-24.9ZM1320.4,94.2h62.6v-57.3h28.9v148h-28.9v-65.9h-62.6v65.9h-28.9V37h28.9v57.3ZM1474.5,37v148h-28.9V37h28.9ZM155.6,138.6c7.6-9.5,16.3-23.6,19.1-41.3,4.1-24.9-5.2-51.5-24.8-71.2C133.3,9.5,111.3,0,89.6,0s-6.9.3-10.5.8c-24.9,3.7-42.5,18.8-53.5,29.8L0,56.2l27.2,27.2c-7.6,9.5-16.3,23.6-19.1,41.3-4.1,24.9,5.2,51.5,24.8,71.2,16.5,16.5,38.5,26,60.3,26,3.5,0,6.9-.3,10.5-.8,24.9-3.7,42.5-18.8,53.5-29.8l25.6-25.6-27.2-27.2ZM149.5,93.1c-3,18.8-16.2,32.8-22.4,39l-7.1,7,26.7,26.7-7.5,7.6c-8.3,8.3-21.5,20-39.2,22.6-17.5,2.4-35.8-4.9-49-18.1-13.4-13.4-20.5-31.8-17.7-49,3-18.8,16.2-32.8,22.4-39l7.1-7-26.7-26.7,7.5-7.6c8.3-8.3,21.5-20,39.2-22.6,17.5-2.4,35.8,4.9,49,18.1,13.4,13.4,20.5,31.8,17.7,49Z"/>
</svg>